<svg width="32" height="32" viewBox="0 0 32 32" fill="none" xmlns="http://www.w3.org/2000/svg">
<g id="Frame" clip-path="url(#clip0_1_288)">
<path id="Vector" d="M5.33333 8C5.33333 7.29276 5.61428 6.61448 6.11438 6.11438C6.61447 5.61429 7.29275 5.33333 7.99999 5.33333H24C24.7072 5.33333 25.3855 5.61429 25.8856 6.11438C26.3857 6.61448 26.6667 7.29276 26.6667 8V24C26.6667 24.7072 26.3857 25.3855 25.8856 25.8856C25.3855 26.3857 24.7072 26.6667 24 26.6667H7.99999C7.29275 26.6667 6.61447 26.3857 6.11438 25.8856C5.61428 25.3855 5.33333 24.7072 5.33333 24V8Z" stroke="#57A4FF" stroke-width="2" stroke-linecap="round" stroke-linejoin="round"/>
<path id="Vector_2" d="M10.6667 14.6667V21.3333" stroke="#57A4FF" stroke-width="2" stroke-linecap="round" stroke-linejoin="round"/>
<path id="Vector_3" d="M10.6667 10.6667V10.68" stroke="#57A4FF" stroke-width="2" stroke-linecap="round" stroke-linejoin="round"/>
<path id="Vector_4" d="M16 21.3333V14.6667" stroke="#57A4FF" stroke-width="2" stroke-linecap="round" stroke-linejoin="round"/>
<path id="Vector_5" d="M21.3333 21.3333V17.3333C21.3333 16.6261 21.0524 15.9478 20.5523 15.4477C20.0522 14.9476 19.3739 14.6667 18.6667 14.6667C17.9594 14.6667 17.2811 14.9476 16.781 15.4477C16.281 15.9478 16 16.6261 16 17.3333" stroke="#57A4FF" stroke-width="2" stroke-linecap="round" stroke-linejoin="round"/>
</g>
<defs>
<clipPath id="clip0_1_288">
<rect width="32" height="32" fill="white"/>
</clipPath>
</defs>
</svg>
